<svg xmlns="http://www.w3.org/2000/svg" xmlns:xlink="http://www.w3.org/1999/xlink" viewBox="0 0 16297.59 4239.36"><defs><style>.bbc4731d-f7cb-488d-a3df-ea5785767628{fill:#33bbcf;}.b8468b58-5fda-4f83-bada-67f4dd6cf8b1{fill:url(#af5c3067-ea50-4b62-8607-b457fb216fc0);}.fd9feae4-9faa-428c-81f0-7b38f72f62d6{fill:url(#a6b58c8b-aead-4141-8f10-8e99d4b6dbd9);}.e636a5ae-23f0-47ca-a11b-e1a3afd1e02f{fill:url(#b97bfa4e-8dac-4f82-a991-c081c191aee3);}.be70d77a-9ec0-4a85-903a-c677a0175a56,.bf81e82b-106a-43e4-a587-96aa80ce6395{fill:#fff;}.bf81e82b-106a-43e4-a587-96aa80ce6395{font-size:774.09px;font-family:Poppins-Medium, Poppins;font-weight:500;}</style><linearGradient id="af5c3067-ea50-4b62-8607-b457fb216fc0" y1="2147.66" x2="3532.57" y2="2147.66" gradientUnits="userSpaceOnUse"><stop offset="0" stop-color="#def9fa"/><stop offset="1" stop-color="#33bbcf"/></linearGradient><linearGradient id="a6b58c8b-aead-4141-8f10-8e99d4b6dbd9" x1="448.8" y1="2102.89" x2="2302.9" y2="2283.24" gradientUnits="userSpaceOnUse"><stop offset="0" stop-color="#def9fa"/><stop offset="0.23" stop-color="#bef3f5"/><stop offset="0.43" stop-color="#9dedf0"/><stop offset="0.63" stop-color="#7de7eb"/><stop offset="0.83" stop-color="#5ce1e6"/><stop offset="1" stop-color="#33bbcf"/></linearGradient><linearGradient id="b97bfa4e-8dac-4f82-a991-c081c191aee3" x1="1731.99" y1="2147.24" x2="3097.48" y2="2280.06" xlink:href="#a6b58c8b-aead-4141-8f10-8e99d4b6dbd9"/></defs><g id="b46251e2-bf26-4faa-9ea8-785937fec7f1" data-name="Layer 2"><path class="b8468b58-5fda-4f83-bada-67f4dd6cf8b1" d="M3532.49,1122c-1,23-12.47,45.25-32.62,58.65-33,22-76.88,12-98-22.29C3252.27,916,3047.25,710.75,2809,564.81c-246.07-150.7-528.05-237.71-815.44-251.61-472.06-22.84-924.43,146.51-1273.78,476.86S165.88,1572.19,143.89,2062.2,285,3021.79,603.28,3384.43s753.47,574.92,1225.53,597.76a1717,1717,0,0,0,834.45-171.81c250.33-122.3,472.85-306.88,643.5-533.78,24.11-32.06,68.7-37.76,99.59-12.73s36.38,71.33,12.27,103.39c-184.27,245-424.57,444.32-694.93,576.41a1855.07,1855.07,0,0,1-901.49,185.67c-509.92-24.67-980.07-254-1323.84-645.71s-520-899-496.24-1428.28S246.8,1038,624.17,681.16,1490.2,141.38,2000.12,166c310.41,15,615,109,881,271.89,257.35,157.62,478.76,379.27,640.28,641A75.47,75.47,0,0,1,3532.49,1122Z"/><path class="fd9feae4-9faa-428c-81f0-7b38f72f62d6" d="M2303.26,1718q50.32,5.07,48.89,56.82-.66,23.74-14.51,50.44l-110.19,196.44q-21.75,41.05-64.51,67t-78.21,22.38l-447.43-45.18q-52.21-5.27-50.74-56.92.66-23.67,14.48-50.33l55.12-98.07q13.81-26.64,14.48-50.33,1.45-51.63-48.87-56.74-37.45-3.78-79.51,22.08T1476.55,1842l-438.5,783.65q-21.69,41.57-64.35,67.9t-78,22.76l-445.93-45q-52-5.25-50.56-56.93.66-23.72,14.51-50.39l492.17-883.37q21.72-41,64.52-66.93t80.07-22.16Z"/><path class="e636a5ae-23f0-47ca-a11b-e1a3afd1e02f" d="M3121.48,1972.45q6.38,24.46-1.24,59.59-11.2,51.69-42.36,87.45L2297.06,3007q-28.92,34.38-75.91,49.07t-81.4,2.63l-434.55-152q-50.71-17.74-39.92-67.33,4.92-22.73,23.44-45.17l789-898,413.43-469q38.82-44.24,67.79-34.1,16.26,5.69,23.13,28.08Z"/><path class="be70d77a-9ec0-4a85-903a-c677a0175a56" d="M3805.67,1938.1h-93.75v294.31H3532.57V1391.52h307.82q96,0,162.59,38.47t99,101.49q32.39,63.07,32.4,136.35,0,81.66-39.35,147.15t-115.73,97.89l173.57,319.54H3964.21L3805.67,1938.1Zm-107.79-152.55h99.53q62.48,0,105.33-27t42.81-90.67q0-61.26-42.26-87.09t-105.88-25.81h-99.53v230.62Z"/><path class="be70d77a-9ec0-4a85-903a-c677a0175a56" d="M4824.4,2121.92v110.49H4327.66c-38.82,0-70.3-32.67-70.3-73V1464.49c0-40.3,31.48-73,70.3-73h0c38.88,0,70.37,32.75,70.3,73.1l-1.05,584.19c-.08,40.35,31.42,73.11,70.29,73.11Z"/><path class="bbc4731d-f7cb-488d-a3df-ea5785767628" d="M5717.29,1772.1h174.34v347.28q-67.14,52.59-155.49,80.71t-177.89,28.13q-128.4,0-230.89-56.86t-160.8-157.75q-58.31-100.87-58.31-228.06t58.31-228.06q58.3-100.87,162-157.75t233.25-56.85q108.38,0,196.73,37.89T5907,1490.84l-122.51,117.4q-88.35-96.6-213.23-96.61-78.91,0-140.18,34.24t-95.42,96.61q-34.15,62.36-34.17,143.07,0,79.48,34.17,141.85t94.83,97.22q60.68,34.85,138.42,34.85,82.47,0,148.43-36.69V1772.1Zm876.46,441.44-159-238.45H6259.18v238.45H6068.34v-856h356.95q109.56,0,190.25,37.91t124.28,107.61q43.59,69.71,43.59,165.08t-44.18,164.48q-44.19,69.09-125.46,105.78l184.95,275.13Zm-3.54-545.39q0-72.14-44.77-110.66T6414.68,1519h-155.5v298.37h155.5q86,0,130.76-39.13t44.77-110.06Zm887.05,362H7094.4l-73,183.42H6825.82l367.54-856h188.48l368.73,856H7550.3l-73-183.42Zm-60.07-150.41L7286.43,1552l-130.77,327.72Zm776.32-522.16q109.55,0,190.25,37.91T8508,1503.07q43.59,69.71,43.59,165.08,0,94.17-43.59,164.48t-124.28,107.61q-80.7,37.29-190.25,37.29h-166.1v236H7836.56v-856Zm-10.61,458.58q86,0,130.77-38.53t44.76-109.45q0-72.14-44.76-110.66T8182.9,1519H8027.41v297.16Zm1260.49-458.58v856H9252.55v-351H8877.94v351H8687.1v-856h190.84v337.51h374.61V1357.55Zm195.56,0h190.84v856H9639v-856Zm781,870.67q-126,0-227.95-56.86t-160.2-157.75q-58.32-100.87-58.31-228.06t58.31-228.06q58.31-100.87,160.2-157.75t229.14-56.85q107.19,0,193.78,39.12t145.49,112.51l-122.52,117.39q-83.64-100.28-207.33-100.28-76.57,0-136.65,34.85t-93.65,97.22q-33.59,62.37-33.58,141.85t33.58,141.85q33.57,62.37,93.65,97.22t136.65,34.85q123.69,0,207.33-101.5l122.52,117.39q-58.91,74.59-146.08,113.72T10420,2228.22Z"/><path class="bbc4731d-f7cb-488d-a3df-ea5785767628" d="M11152.51,1357.56h374.61q134.29,0,237.37,53.19t160.22,149.8q57.14,96.6,57.13,225t-57.13,225q-57.13,96.6-160.22,149.8t-237.37,53.2h-374.61v-856Zm365.19,693.34q123.69,0,197.32-71.53t73.63-193.82q0-122.29-73.63-193.82t-197.32-71.54h-174.35V2050.9Zm1246.35,3.67v159h-638.49v-856h623.18v159h-433.52V1702.4h382.86v154.08h-382.86v198.09ZM13187,2228.22a651.45,651.45,0,0,1-189.07-27.52q-91.29-27.51-146.66-71.53L12916,1980q53,40.37,126,64.81t146.08,24.46q81.29,0,120.16-25.07t38.87-66.64q0-30.57-23-50.76t-58.91-32.39q-35.91-12.24-97.18-26.91-94.25-23.24-154.33-46.47t-103.07-74.59q-43-51.36-43-137,0-74.6,38.87-135.11t117.22-96q78.35-35.47,191.43-35.46a612,612,0,0,1,154.32,19.56q75.41,19.56,131.94,56.25l-58.9,150.41q-114.27-67.26-228.54-67.25-80.1,0-118.39,26.9t-38.29,70.92q0,44,44.18,65.42t134.88,42.19q94.25,23.24,154.33,46.47t103.08,73.37q43,50.11,43,135.73,0,73.38-39.46,133.91t-118.4,96q-78.91,35.46-192,35.46Zm480.65-870.66h190.83v856h-190.83v-856Zm943.6,414.54h174.34v347.28q-67.14,52.59-155.5,80.72t-177.88,28.12q-128.4,0-230.89-56.86t-160.8-157.75q-58.3-100.87-58.31-228.06t58.31-228.06q58.31-100.87,162-157.75t233.25-56.85q108.39,0,196.73,37.91t148.43,110l-122.5,117.39q-88.36-96.61-213.23-96.6-78.93,0-140.18,34.24t-95.42,96.6q-34.19,62.36-34.17,143.07,0,79.48,34.17,141.85t94.83,97.22q60.66,34.85,138.41,34.85,82.47,0,148.44-36.68V1772.1Zm1107.34-414.54v856h-156.67l-411.13-519.72v519.72h-188.49v-856h157.86l409.95,519.71V1357.56Z"/><text class="bf81e82b-106a-43e4-a587-96aa80ce6395" transform="translate(3532.58 3090.32) scale(0.96 1)">RENDRE LE LANGAGE VISUELLEMENT</text></g></svg>